<svg width="122" height="16" viewBox="0 0 122 16" fill="none" xmlns="http://www.w3.org/2000/svg">
<path d="M6.38599 3.29526C7.06995 1.59016 7.41193 0.73761 8 0.73761C8.58807 0.73761 8.93005 1.59016 9.61401 3.29526L9.64586 3.37466C10.0323 4.33796 10.2255 4.81961 10.6192 5.11236C11.013 5.40512 11.5299 5.45141 12.5636 5.54399L12.7505 5.56073C14.4424 5.71225 15.2884 5.78801 15.4694 6.32622C15.6504 6.86443 15.0222 7.436 13.7657 8.57912L13.3463 8.96064C12.7103 9.53931 12.3923 9.82865 12.244 10.2079C12.2164 10.2786 12.1934 10.3511 12.1752 10.4248C12.0778 10.8202 12.1709 11.2399 12.3572 12.0794L12.4151 12.3407C12.7574 13.8835 12.9286 14.6549 12.6298 14.9876C12.5181 15.1119 12.373 15.2015 12.2117 15.2454C11.7803 15.3632 11.1677 14.864 9.94266 13.8658C9.13821 13.2103 8.73599 12.8825 8.27419 12.8088C8.09255 12.7798 7.90745 12.7798 7.72581 12.8088C7.26401 12.8825 6.86179 13.2103 6.05734 13.8658C4.83225 14.864 4.2197 15.3632 3.78825 15.2454C3.62703 15.2015 3.4819 15.1119 3.37024 14.9876C3.07141 14.6549 3.24256 13.8835 3.58486 12.3407L3.64283 12.0794C3.82909 11.2399 3.92222 10.8202 3.82479 10.4248C3.80661 10.3511 3.78362 10.2786 3.75597 10.2079C3.60775 9.82865 3.28972 9.53931 2.65367 8.96064L2.23432 8.57913C0.97785 7.436 0.349612 6.86443 0.530625 6.32622C0.711637 5.78801 1.55759 5.71225 3.24948 5.56073L3.43637 5.54399C4.47014 5.45141 4.98703 5.40512 5.38078 5.11236C5.77454 4.81961 5.96774 4.33796 6.35414 3.37466L6.38599 3.29526Z" fill="#F1582B"/>
<path d="M24.386 3.29526C25.07 1.59016 25.4119 0.73761 26 0.73761C26.5881 0.73761 26.93 1.59016 27.614 3.29526L27.6459 3.37466C28.0323 4.33796 28.2255 4.81961 28.6192 5.11236C29.013 5.40512 29.5299 5.45141 30.5636 5.54399L30.7505 5.56073C32.4424 5.71225 33.2884 5.78801 33.4694 6.32622C33.6504 6.86443 33.0222 7.436 31.7657 8.57912L31.3463 8.96064C30.7103 9.53931 30.3923 9.82865 30.244 10.2079C30.2164 10.2786 30.1934 10.3511 30.1752 10.4248C30.0778 10.8202 30.1709 11.2399 30.3572 12.0794L30.4151 12.3407C30.7574 13.8835 30.9286 14.6549 30.6298 14.9876C30.5181 15.1119 30.373 15.2015 30.2117 15.2454C29.7803 15.3632 29.1677 14.864 27.9427 13.8658C27.1382 13.2103 26.736 12.8825 26.2742 12.8088C26.0925 12.7798 25.9075 12.7798 25.7258 12.8088C25.264 12.8825 24.8618 13.2103 24.0573 13.8658C22.8323 14.864 22.2197 15.3632 21.7883 15.2454C21.627 15.2015 21.4819 15.1119 21.3702 14.9876C21.0714 14.6549 21.2426 13.8835 21.5849 12.3407L21.6428 12.0794C21.8291 11.2399 21.9222 10.8202 21.8248 10.4248C21.8066 10.3511 21.7836 10.2786 21.756 10.2079C21.6077 9.82865 21.2897 9.53931 20.6537 8.96064L20.2343 8.57913C18.9778 7.436 18.3496 6.86443 18.5306 6.32622C18.7116 5.78801 19.5576 5.71225 21.2495 5.56073L21.4364 5.54399C22.4701 5.45141 22.987 5.40512 23.3808 5.11236C23.7745 4.81961 23.9677 4.33796 24.3541 3.37466L24.386 3.29526Z" fill="#F1582B"/>
<path d="M42.386 3.29526C43.07 1.59016 43.4119 0.73761 44 0.73761C44.5881 0.73761 44.93 1.59016 45.614 3.29526L45.6459 3.37466C46.0323 4.33796 46.2255 4.81961 46.6192 5.11236C47.013 5.40512 47.5299 5.45141 48.5636 5.54399L48.7505 5.56073C50.4424 5.71225 51.2884 5.78801 51.4694 6.32622C51.6504 6.86443 51.0222 7.436 49.7657 8.57912L49.3463 8.96064C48.7103 9.53931 48.3923 9.82865 48.244 10.2079C48.2164 10.2786 48.1934 10.3511 48.1752 10.4248C48.0778 10.8202 48.1709 11.2399 48.3572 12.0794L48.4151 12.3407C48.7574 13.8835 48.9286 14.6549 48.6298 14.9876C48.5181 15.1119 48.373 15.2015 48.2117 15.2454C47.7803 15.3632 47.1677 14.864 45.9427 13.8658C45.1382 13.2103 44.736 12.8825 44.2742 12.8088C44.0925 12.7798 43.9075 12.7798 43.7258 12.8088C43.264 12.8825 42.8618 13.2103 42.0573 13.8658C40.8323 14.864 40.2197 15.3632 39.7883 15.2454C39.627 15.2015 39.4819 15.1119 39.3702 14.9876C39.0714 14.6549 39.2426 13.8835 39.5849 12.3407L39.6428 12.0794C39.8291 11.2399 39.9222 10.8202 39.8248 10.4248C39.8066 10.3511 39.7836 10.2786 39.756 10.2079C39.6077 9.82865 39.2897 9.53931 38.6537 8.96064L38.2343 8.57913C36.9778 7.436 36.3496 6.86443 36.5306 6.32622C36.7116 5.78801 37.5576 5.71225 39.2495 5.56073L39.4364 5.54399C40.4701 5.45141 40.987 5.40512 41.3808 5.11236C41.7745 4.81961 41.9677 4.33796 42.3541 3.37466L42.386 3.29526Z" fill="#F1582B"/>
<path d="M60.386 3.29526C61.07 1.59016 61.4119 0.73761 62 0.73761C62.5881 0.73761 62.93 1.59016 63.614 3.29526L63.6459 3.37466C64.0323 4.33796 64.2255 4.81961 64.6192 5.11236C65.013 5.40512 65.5299 5.45141 66.5636 5.54399L66.7505 5.56073C68.4424 5.71225 69.2884 5.78801 69.4694 6.32622C69.6504 6.86443 69.0222 7.436 67.7657 8.57912L67.3463 8.96064C66.7103 9.53931 66.3923 9.82865 66.244 10.2079C66.2164 10.2786 66.1934 10.3511 66.1752 10.4248C66.0778 10.8202 66.1709 11.2399 66.3572 12.0794L66.4151 12.3407C66.7574 13.8835 66.9286 14.6549 66.6298 14.9876C66.5181 15.1119 66.373 15.2015 66.2117 15.2454C65.7803 15.3632 65.1677 14.864 63.9427 13.8658C63.1382 13.2103 62.736 12.8825 62.2742 12.8088C62.0925 12.7798 61.9075 12.7798 61.7258 12.8088C61.264 12.8825 60.8618 13.2103 60.0573 13.8658C58.8323 14.864 58.2197 15.3632 57.7883 15.2454C57.627 15.2015 57.4819 15.1119 57.3702 14.9876C57.0714 14.6549 57.2426 13.8835 57.5849 12.3407L57.6428 12.0794C57.8291 11.2399 57.9222 10.8202 57.8248 10.4248C57.8066 10.3511 57.7836 10.2786 57.756 10.2079C57.6077 9.82865 57.2897 9.53931 56.6537 8.96064L56.2343 8.57913C54.9778 7.436 54.3496 6.86443 54.5306 6.32622C54.7116 5.78801 55.5576 5.71225 57.2495 5.56073L57.4364 5.54399C58.4701 5.45141 58.987 5.40512 59.3808 5.11236C59.7745 4.81961 59.9677 4.33796 60.3541 3.37466L60.386 3.29526Z" fill="#F1582B"/>
<path d="M78.386 3.29526C79.07 1.59016 79.4119 0.73761 80 0.73761C80.5881 0.73761 80.93 1.59016 81.614 3.29526L81.6459 3.37466C82.0323 4.33796 82.2255 4.81961 82.6192 5.11236C83.013 5.40512 83.5299 5.45141 84.5636 5.54399L84.7505 5.56073C86.4424 5.71225 87.2884 5.78801 87.4694 6.32622C87.6504 6.86443 87.0222 7.436 85.7657 8.57912L85.3463 8.96064C84.7103 9.53931 84.3923 9.82865 84.244 10.2079C84.2164 10.2786 84.1934 10.3511 84.1752 10.4248C84.0778 10.8202 84.1709 11.2399 84.3572 12.0794L84.4151 12.3407C84.7574 13.8835 84.9286 14.6549 84.6298 14.9876C84.5181 15.1119 84.373 15.2015 84.2117 15.2454C83.7803 15.3632 83.1677 14.864 81.9427 13.8658C81.1382 13.2103 80.736 12.8825 80.2742 12.8088C80.0925 12.7798 79.9075 12.7798 79.7258 12.8088C79.264 12.8825 78.8618 13.2103 78.0573 13.8658C76.8323 14.864 76.2197 15.3632 75.7883 15.2454C75.627 15.2015 75.4819 15.1119 75.3702 14.9876C75.0714 14.6549 75.2426 13.8835 75.5849 12.3407L75.6428 12.0794C75.8291 11.2399 75.9222 10.8202 75.8248 10.4248C75.8066 10.3511 75.7836 10.2786 75.756 10.2079C75.6077 9.82865 75.2897 9.53931 74.6537 8.96064L74.2343 8.57913C72.9778 7.436 72.3496 6.86443 72.5306 6.32622C72.7116 5.78801 73.5576 5.71225 75.2495 5.56073L75.4364 5.54399C76.4701 5.45141 76.987 5.40512 77.3808 5.11236C77.7745 4.81961 77.9677 4.33796 78.3541 3.37466L78.386 3.29526Z" fill="#F1582B"/>
<path d="M96.5605 9.16504C96.5605 8.40397 96.6335 7.66113 96.7793 6.93652C96.9251 6.20736 97.1507 5.51237 97.4561 4.85156C97.7614 4.1862 98.1488 3.57096 98.6182 3.00586H100.327C99.6891 3.88086 99.2038 4.84701 98.8711 5.9043C98.543 6.96159 98.3789 8.04395 98.3789 9.15137C98.3789 9.87142 98.4518 10.5892 98.5977 11.3047C98.7435 12.0156 98.96 12.7015 99.2471 13.3623C99.5387 14.0231 99.8942 14.6406 100.313 15.2148H98.6182C98.1488 14.668 97.7614 14.0687 97.4561 13.417C97.1507 12.7699 96.9251 12.0885 96.7793 11.373C96.6335 10.653 96.5605 9.91699 96.5605 9.16504ZM108.291 13H101.305V11.5303L103.813 8.99414C104.319 8.47461 104.725 8.04167 105.03 7.69531C105.34 7.3444 105.563 7.02539 105.7 6.73828C105.841 6.45117 105.912 6.14355 105.912 5.81543C105.912 5.41895 105.8 5.12272 105.577 4.92676C105.358 4.72624 105.064 4.62598 104.695 4.62598C104.308 4.62598 103.932 4.71484 103.567 4.89258C103.203 5.07031 102.822 5.32324 102.426 5.65137L101.277 4.29102C101.564 4.04492 101.868 3.8125 102.187 3.59375C102.51 3.375 102.884 3.19954 103.308 3.06738C103.736 2.93066 104.249 2.8623 104.846 2.8623C105.502 2.8623 106.065 2.98079 106.534 3.21777C107.008 3.45475 107.373 3.77832 107.628 4.18848C107.883 4.59408 108.011 5.05436 108.011 5.56934C108.011 6.12077 107.901 6.62435 107.683 7.08008C107.464 7.53581 107.145 7.98698 106.726 8.43359C106.311 8.88021 105.81 9.37467 105.222 9.91699L103.937 11.127V11.2227H108.291V13ZM116.248 8.00293C116.248 8.80957 116.184 9.52962 116.057 10.1631C115.934 10.7965 115.733 11.3343 115.455 11.7764C115.182 12.2184 114.822 12.5557 114.375 12.7881C113.928 13.0205 113.386 13.1367 112.748 13.1367C111.946 13.1367 111.287 12.9339 110.772 12.5283C110.257 12.1182 109.877 11.5303 109.631 10.7646C109.385 9.99447 109.262 9.07389 109.262 8.00293C109.262 6.92285 109.373 6 109.597 5.23438C109.825 4.46419 110.194 3.87402 110.704 3.46387C111.215 3.05371 111.896 2.84863 112.748 2.84863C113.546 2.84863 114.202 3.05371 114.717 3.46387C115.236 3.86947 115.621 4.45736 115.872 5.22754C116.123 5.99316 116.248 6.91829 116.248 8.00293ZM111.36 8.00293C111.36 8.764 111.401 9.39974 111.483 9.91016C111.57 10.416 111.714 10.7965 111.914 11.0518C112.115 11.307 112.393 11.4346 112.748 11.4346C113.099 11.4346 113.375 11.3092 113.575 11.0586C113.78 10.8034 113.926 10.4229 114.013 9.91699C114.099 9.40658 114.143 8.76855 114.143 8.00293C114.143 7.24186 114.099 6.60612 114.013 6.0957C113.926 5.58529 113.78 5.20247 113.575 4.94727C113.375 4.6875 113.099 4.55762 112.748 4.55762C112.393 4.55762 112.115 4.6875 111.914 4.94727C111.714 5.20247 111.57 5.58529 111.483 6.0957C111.401 6.60612 111.36 7.24186 111.36 8.00293ZM120.951 9.16504C120.951 9.91699 120.878 10.653 120.732 11.373C120.587 12.0885 120.361 12.7699 120.056 13.417C119.755 14.0687 119.368 14.668 118.894 15.2148H117.198C117.622 14.6406 117.978 14.0231 118.265 13.3623C118.552 12.7015 118.768 12.0156 118.914 11.3047C119.06 10.5892 119.133 9.87142 119.133 9.15137C119.133 8.41309 119.058 7.68392 118.907 6.96387C118.761 6.24382 118.545 5.55111 118.258 4.88574C117.971 4.21582 117.613 3.58919 117.185 3.00586H118.894C119.368 3.57096 119.755 4.1862 120.056 4.85156C120.361 5.51237 120.587 6.20736 120.732 6.93652C120.878 7.66113 120.951 8.40397 120.951 9.16504Z" fill="#F1582B"/>
</svg>
